<svg xmlns="http://www.w3.org/2000/svg" viewBox="0 0 156.99 46.47"><defs><style>.cls-1{fill:#fff;}</style></defs><g id="Warstwa_2" data-name="Warstwa 2"><g id="Layer_1" data-name="Layer 1"><path class="cls-1" d="M25.93,19.52c-1.85,0-3.35-2.32-3.35-5.18s1.5-5.19,3.35-5.19,3.34,2.32,3.34,5.19-1.5,5.18-3.34,5.18M20.64,29.87c-4.07,0-7.49-3.92-8.52-8.29a10.44,10.44,0,0,0,17,0c-1,4.37-4.46,8.29-8.52,8.29M15.35,9.15c1.85,0,3.34,2.32,3.34,5.19s-1.49,5.18-3.34,5.18S12,17.2,12,14.34s1.49-5.19,3.34-5.19M40.11,38.59a27.08,27.08,0,0,1-2.34-9.66V16.79A17,17,0,0,0,20.64,0,17,17,0,0,0,3.51,16.79V29.1a27.41,27.41,0,0,1-2.34,9.49c-2.53,5.72-.44,5,1.44,4.57s6.05-2.31,7.36,0,2.4,4.22,5.45,2.94a21.51,21.51,0,0,1,4.92-1.71h.6a21.51,21.51,0,0,1,4.92,1.71c3.05,1.28,4.14-.68,5.45-2.94s5.49-.43,7.37,0,4,1.15,1.43-4.57"/><path d="M51.14,19.85h5.44v7.69c0,3.88-2,6.1-5.8,6.1S45,31.42,45,27.54V14.93c0-3.88,2-6.1,5.79-6.1s5.8,2.22,5.8,6.1v2.36H52.9v-2.6c0-1.73-.77-2.39-2-2.39s-2,.66-2,2.39V27.78c0,1.74.78,2.36,2,2.36s2-.62,2-2.36V23.31H51.14Z"/><polygon points="62.98 33.36 59.09 33.36 59.09 9.11 62.98 9.11 62.98 19.5 67.4 19.5 67.4 9.11 71.36 9.11 71.36 33.36 67.4 33.36 67.4 22.97 62.98 22.97 62.98 33.36"/><path d="M77.75,27.78c0,1.74.78,2.39,2,2.39s2-.65,2-2.39V14.69c0-1.73-.77-2.39-2-2.39s-2,.66-2,2.39ZM73.87,14.93c0-3.88,2.08-6.1,5.9-6.1s5.9,2.22,5.9,6.1V27.54c0,3.88-2.08,6.1-5.9,6.1s-5.9-2.22-5.9-6.1Z"/><path d="M93.42,8.83c3.78,0,5.72,2.22,5.72,6.1v.76H95.47v-1c0-1.73-.71-2.39-2-2.39s-1.94.66-1.94,2.39c0,5,7.6,5.92,7.6,12.85,0,3.88-2,6.1-5.8,6.1s-5.8-2.22-5.8-6.1V26.05h3.68v1.73c0,1.73.78,2.36,2,2.36s2-.63,2-2.36c0-5-7.6-5.92-7.6-12.85,0-3.88,1.94-6.1,5.73-6.1"/><polygon points="99.97 9.11 111.99 9.11 111.99 12.57 107.93 12.57 107.93 33.36 104.04 33.36 104.04 12.57 99.97 12.57 99.97 9.11"/><polygon points="117.88 19.33 123.22 19.33 123.22 22.79 117.88 22.79 117.88 29.9 124.59 29.9 124.59 33.36 113.99 33.36 113.99 9.11 124.59 9.11 124.59 12.57 117.88 12.57 117.88 19.33"/><path d="M130.89,12.57V20h1.52c1.45,0,2.33-.62,2.33-2.56V15.07c0-1.73-.6-2.5-2-2.5Zm4.24,20.79a7.32,7.32,0,0,1-.36-3V26.57c0-2.25-.77-3.08-2.54-3.08h-1.34v9.87H127V9.11h5.87c4,0,5.76,1.84,5.76,5.58v1.9c0,2.5-.81,4.13-2.55,4.92,1.95.8,2.58,2.64,2.58,5.16v3.75a7,7,0,0,0,.43,2.94Z"/><polygon points="144.5 25.32 139.58 9.11 143.65 9.11 146.62 20.16 149.59 9.11 153.3 9.11 148.38 25.32 148.38 33.36 144.5 33.36 144.5 25.32"/><path d="M155.42,10v.48h.13c.12,0,.19,0,.19-.2v-.08c0-.14-.05-.2-.17-.2Zm.35,1.44a.53.53,0,0,1,0-.24V11c0-.18-.07-.25-.21-.25h-.11v.68h-.31V9.68h.48c.32,0,.46.15.46.45v0c0,.21-.06.34-.21.4.16.07.21.21.21.42v.18a.57.57,0,0,0,0,.24Zm-.21.3a1.16,1.16,0,1,0-1.13-1.16,1.12,1.12,0,0,0,1.13,1.16m0-2.6a1.44,1.44,0,1,1-1.43,1.44,1.39,1.39,0,0,1,1.43-1.44"/></g></g></svg>